<svg xmlns="http://www.w3.org/2000/svg" width="20" height="21" viewBox="0 0 20 21" fill="none">
<path d="M13.3333 5.83333V5.16667C13.3333 4.23325 13.3333 3.76654 13.1517 3.41002C12.9919 3.09641 12.7369 2.84144 12.4233 2.68166C12.0668 2.5 11.6001 2.5 10.6667 2.5H9.33333C8.39991 2.5 7.9332 2.5 7.57668 2.68166C7.26308 2.84144 7.00811 3.09641 6.84832 3.41002C6.66667 3.76654 6.66667 4.23325 6.66667 5.16667V5.83333M8.33333 10.4167V14.5833M11.6667 10.4167V14.5833M2.5 5.83333H17.5M15.8333 5.83333V15.1667C15.8333 16.5668 15.8333 17.2669 15.5608 17.8016C15.3212 18.272 14.9387 18.6545 14.4683 18.8942C13.9335 19.1667 13.2335 19.1667 11.8333 19.1667H8.16667C6.76654 19.1667 6.06647 19.1667 5.53169 18.8942C5.06129 18.6545 4.67883 18.272 4.43915 17.8016C4.16667 17.2669 4.16667 16.5668 4.16667 15.1667V5.83333" stroke="currentColor" stroke-width="1.66667" stroke-linecap="round" stroke-linejoin="round"/>
</svg>