<svg width="24" height="25" viewBox="0 0 24 25" fill="none" xmlns="http://www.w3.org/2000/svg">
<g id="microphone-01">
<g id="Icon">
<path d="M9 5.5C9 3.84315 10.3431 2.5 12 2.5C13.6569 2.5 15 3.84315 15 5.5V12.5C15 14.1569 13.6569 15.5 12 15.5C10.3431 15.5 9 14.1569 9 12.5V5.5Z" fill="white"/>
<path d="M19 10.5V12.5C19 16.366 15.866 19.5 12 19.5M5 10.5V12.5C5 16.366 8.13401 19.5 12 19.5M12 19.5V22.5M8 22.5H16M12 15.5C10.3431 15.5 9 14.1569 9 12.5V5.5C9 3.84315 10.3431 2.5 12 2.5C13.6569 2.5 15 3.84315 15 5.5V12.5C15 14.1569 13.6569 15.5 12 15.5Z" stroke="#F5F5F5" stroke-width="2" stroke-linecap="round" stroke-linejoin="round"/>
</g>
</g>
</svg>
