<svg width="30" height="30" viewBox="0 0 30 30" fill="none" xmlns="http://www.w3.org/2000/svg">
<path d="M11.6927 26.25C12.5741 27.028 13.7319 27.5 15 27.5C16.268 27.5 17.4258 27.028 18.3072 26.25M22.5 10C22.5 8.01088 21.7098 6.10322 20.3033 4.6967C18.8967 3.29018 16.9891 2.5 15 2.5C13.0108 2.5 11.1032 3.29018 9.69666 4.6967C8.29014 6.10322 7.49996 8.01088 7.49996 10C7.49996 13.8627 6.52555 16.5074 5.43704 18.2568C4.51887 19.7323 4.05979 20.4701 4.07662 20.6759C4.09526 20.9038 4.14354 20.9907 4.32718 21.127C4.49304 21.25 5.2407 21.25 6.73603 21.25H23.2639C24.7592 21.25 25.5069 21.25 25.6727 21.127C25.8564 20.9907 25.9047 20.9038 25.9233 20.6759C25.9401 20.4701 25.4811 19.7323 24.5629 18.2568C23.4744 16.5074 22.5 13.8627 22.5 10Z" stroke="currentColor" stroke-width="2.5" stroke-linecap="round" stroke-linejoin="round"/>
</svg>
