<svg width="19" height="19" viewBox="0 0 19 19" fill="none" xmlns="http://www.w3.org/2000/svg">
<path id="Icon" d="M14.0026 8.33424L10.6693 5.0009M1.08594 17.9176L3.90624 17.6042C4.25082 17.5659 4.42311 17.5468 4.58414 17.4946C4.72701 17.4484 4.86298 17.383 4.98834 17.3004C5.12965 17.2072 5.25222 17.0846 5.49738 16.8395L16.5026 5.83424C17.4231 4.91376 17.4231 3.42138 16.5026 2.5009C15.5822 1.58043 14.0898 1.58043 13.1693 2.5009L2.16404 13.5061C1.91889 13.7513 1.79632 13.8739 1.70314 14.0152C1.62046 14.1405 1.55512 14.2765 1.50887 14.4194C1.45673 14.5804 1.43759 14.7527 1.3993 15.0973L1.08594 17.9176Z" stroke="currentColor" stroke-width="1.66667" stroke-linecap="round" stroke-linejoin="round"/>
</svg>
