<svg viewBox="0 0 56 56" fill="none" xmlns="http://www.w3.org/2000/svg">
<g id="Filled / Phone Icon">
<path id="Vector" d="M19.7949 10.1123L20.7331 17.6756C20.8643 18.7336 20.5035 19.7933 19.7554 20.5472L17.2104 23.1116C16.2139 24.1157 16.1346 25.7173 17.027 26.8163L19.4176 29.7605C20.8823 31.5644 22.6052 33.1385 24.5298 34.4313L27.9181 36.7076C29.0357 37.4584 30.5285 37.2832 31.445 36.2937L33.8846 33.6599C34.3651 33.1411 35.0755 32.9061 35.7677 33.0369L43.9501 34.5828C44.9231 34.7666 45.6283 35.6227 45.6283 36.6202V43.631C45.6283 44.7386 44.771 45.6566 43.6721 45.6291C31.1493 45.3162 9.37917 36.9485 8.29661 10.38C8.25 9.23609 9.17574 8.29639 10.3119 8.29639H17.7535C18.791 8.29639 19.6662 9.0749 19.7949 10.1123Z" stroke="currentColor" fill="white"/>
</g>
</svg>
