<svg width="29" height="30" viewBox="0 0 29 30" fill="currentColor" xmlns="http://www.w3.org/2000/svg">
<g id="phone" clip-path="url(#clip0_380_14204)">
<path id="Icon" d="M18.1294 14.7213C16.8651 14.2773 15.5054 14.0358 14.0894 14.0358C12.6733 14.0358 11.3136 14.2773 10.0493 14.7213C9.94056 14.7595 9.88618 14.7786 9.82614 14.8116C9.61279 14.9286 9.44452 15.1661 9.40479 15.4061C9.39361 15.4737 9.39361 15.5411 9.39361 15.6758C9.39361 16.0878 9.39361 16.2938 9.35738 16.4647C9.22073 17.1093 8.71717 17.6129 8.07259 17.7495C7.90167 17.7858 7.69566 17.7858 7.28364 17.7858L7.05399 17.7858C6.42768 17.7858 6.11452 17.7858 5.86131 17.7026C5.35771 17.5374 4.96275 17.1424 4.79747 16.6388C4.71436 16.3856 4.71436 16.0724 4.71436 15.4461L4.71436 15.2604C4.71436 14.6362 4.71436 14.3241 4.80734 13.9928C4.91051 13.6251 5.18105 13.1644 5.45187 12.8952C5.69592 12.6526 5.90943 12.5335 6.33643 12.2953C8.63121 11.0152 11.2751 10.2858 14.0894 10.2858C16.9036 10.2858 19.5475 11.0152 21.8423 12.2953C22.2693 12.5335 22.4828 12.6526 22.7269 12.8952C22.9977 13.1644 23.2682 13.6251 23.3714 13.9928C23.4644 14.3241 23.4644 14.6362 23.4644 15.2604L23.4644 15.4461C23.4644 16.0724 23.4644 16.3856 23.3813 16.6388C23.216 17.1424 22.821 17.5374 22.3174 17.7026C22.0642 17.7858 21.751 17.7858 21.1247 17.7858L20.8951 17.7858C20.4831 17.7858 20.2771 17.7858 20.1061 17.7495C19.4616 17.6129 18.958 17.1093 18.8213 16.4647C18.7851 16.2938 18.7851 16.0878 18.7851 15.6758C18.7851 15.5411 18.7851 15.4737 18.7739 15.4061C18.7342 15.1661 18.5659 14.9286 18.3526 14.8116C18.2925 14.7786 18.2382 14.7595 18.1294 14.7213Z" stroke="currentColor" stroke-width="1.66667" stroke-linecap="round" stroke-linejoin="round"/>
</g>
<defs>
<clipPath id="clip0_380_14204">
<rect width="20" height="20" fill="white" transform="translate(28.2852 15) rotate(135)"/>
</clipPath>
</defs>
</svg>
