<svg width="16" height="16" viewBox="0 0 16 16" fill="none" xmlns="http://www.w3.org/2000/svg">
<path d="M13.3346 14C13.3346 13.0696 13.3346 12.6044 13.2198 12.2259C12.9613 11.3736 12.2943 10.7067 11.4421 10.4482C11.0635 10.3333 10.5983 10.3333 9.66797 10.3333H6.33464C5.40426 10.3333 4.93907 10.3333 4.56054 10.4482C3.70827 10.7067 3.04133 11.3736 2.7828 12.2259C2.66797 12.6044 2.66797 13.0696 2.66797 14M11.0013 5C11.0013 6.65685 9.65816 8 8.0013 8C6.34445 8 5.0013 6.65685 5.0013 5C5.0013 3.34315 6.34445 2 8.0013 2C9.65816 2 11.0013 3.34315 11.0013 5Z" stroke="currentColor" stroke-width="1.5" stroke-linecap="round" stroke-linejoin="round"/>
</svg>
